<svg id="Layer_1" data-name="Layer 1" xmlns="http://www.w3.org/2000/svg" viewBox="0 0 256 48">
    <defs>
        <style>.cls-1{fill:#2397d4;}</style>
    </defs>
    <path id="Jena-City" class="cls-1"
          d="M256,43.73v-.9L254.17,42v-.57l-3-.64-2.46-2.12-2.32,1.89h-3.12v-4L239,34.29l-3.74,2v2.18h-1.46v1.15L231.64,38v-3.9l-1.22-6.39-1.35,6.15v2.8l-3.66.12-2.5.27-.69.6h-1.31l-.22,0V29.16l.25-.25h-.43v-.77h-.46v.56h-.48l-1.16-3-1.17,3h-.47v-.56h-.46v.77h-.44l.25.25V38l-1.58.05-1.69.32-.12-2.58-1.82-2.54h-2.13l-.85-.72-1.69-3.08-2,3.26-1,.93h.68v2.91l-.1.06-1.16-1.06-1.57,1.36-1-.92-1.5,1.51h-2v-5.6l-2.18-1.18-1.95,1.82v3.74h-.82V30.42h-1.31v1.46h-3.52l-2.09,1.95v5.6h-2.08V35.65h-1.24V33.9h0l0-.17-.07,0V33l.08,0-.15-.14-.38-1.22-.4,1.31h-.18l-.42-2.78H168.25l-.58,3-3,.74v2.42H163.3v-17h-3.64V17h-2V15.68H155V19.3h-.76V34h-2V32.24l-1.46-5.08-1.31,4.56h-3.23V33h-1.56l-1.17-4-.24.86V9.06h-.44V6.64h-.73V6h-1.12v.76h-.33V6.49l-.52-.14V4.29l-.15-.09V3h-.26l-.07-3h0V3.05h-.19V6.42H139v.51h-1.57V6.65h-1.36l-.08.29-.83.23V9.1h-.92V33.4h-2.44v-.35l.16-.14L130.23,32l-2.66-3.14-2,2.27v-.93h.14v-.25l-.17,0V28l.21-.11,0-.18c-.2-.1-.47,0-.55-.43a.86.86,0,0,0-.56-.64V26l.25-.14-.27-.44-.28-1.32-.06-.91-.07.91-.28,1.32-.26.44.25.14v.66a.87.87,0,0,0-.57.64c-.07.43-.35.33-.55.43l0,.18.21.11V29.9l-.16,0v.25h.14v.93l-2-2.27L118.16,32l-1.71.92.15.14v1.73l-1.09,1.76-.74-1.18V23.28H113.6v-1h.26V22h-.61V20.78c-3.45-.87-6.93-1.7-12,.67V20h-.35V38.12L98,37.4V35.13h.62L97.32,34,95.63,31l-2,3.26-1,.93h.68v1.48l-.51.43-3.18-2.83-.54.49-1-3.12H79.42v-2l.1,0v-.14l-.32-.11V25.79l.06,0v-.11l-.13-.08V21.1l0-.05v-.92h-.35l-.18.19H77.9v-.93l.17-.06v-.18a.51.51,0,0,0-.24,0c-.1,0-.48,0-.48,0l-.08-1.23h-.15L77,19.11s-.37,0-.48,0a.51.51,0,0,0-.24,0v.18l.17.06v.93h-.74l-.18-.19h-.35v.92l0,.05v4.46l-.13.08v.11l.06,0v3.57l-.32.11v.14l.1,0v4l-.16,0v.1l.13,0v3H71.46V32.61l-1.62-.88-1.25-7.4-.78,7.3-1.56.73v2.81H64.16l-.65-2.26-.44,1.56-.38-.4H57.26V29.93l.32-.32c-.38-.06-.53-.44-.71-.77A1.81,1.81,0,0,0,56,27.42v-1.6l.16-.28a.53.53,0,0,1-.24-.25c-.09-.38-.13-.78-.46-1l-.09-1h-.16l-.08,1c-.33.21-.38.61-.46,1a.51.51,0,0,1-.25.25l.17.28v1.6a1.79,1.79,0,0,0-.84,1.42c-.18.33-.33.71-.71.77l.32.32V33.1l-.48.78H51.64l-.6-1-1.7,1.58v1.69H47.77V31.81H45.45c-.17-1.6-1.9-2.91-4.19-3.28a.09.09,0,0,0,0-.05h0c0-.3-.6-.54-1.35-.54s-1.35.24-1.35.54h0s0,0,0,0c-2.29.37-4,1.68-4.18,3.28H32.08V34h-.26V35.9l-1.31.32L28,33.87l-2,1.86V32.14L25.5,32,25,26.24,24.45,32l-.5.17v4.77l-1.85-1-.37-1.31-1.25-.31L20.1,33l-.9-.23V35h-2v2.44h-1L15,35.58l-1.67,1.56-1.06.26-3-2.83L7.67,37.12l-1.34.72L4.77,37,3.32,39.34H0V48H256V43.73Z"/>
</svg>