<svg xmlns="http://www.w3.org/2000/svg" viewBox="0 0 250 70"><defs><style>.cls-1{fill:#fff;}</style></defs><g id="white_-_wl_-_powered_by_-_als_Pfad" data-name="white - wl - powered by - als Pfad"><path class="cls-1" d="M200.51,30.73a2.5,2.5,0,0,1-.46.83,2.31,2.31,0,0,1-.73.58,2.19,2.19,0,0,1-1,.21,3.39,3.39,0,0,1-.45,0,3.11,3.11,0,0,1-.44-.07v2l0,.08a.31.31,0,0,1-.15.1H197a.3.3,0,0,1-.1-.07l-.07-.11v-6.3a.33.33,0,0,1,.11-.15l.06,0h.24l.07,0a.29.29,0,0,1,.12.15v.29a1.69,1.69,0,0,1,.59-.39,1.64,1.64,0,0,1,.69-.14,1.8,1.8,0,0,1,1.46.55,2.21,2.21,0,0,1,.47,1.5A2.92,2.92,0,0,1,200.51,30.73ZM200,29.14a1.22,1.22,0,0,0-.23-.47,1.1,1.1,0,0,0-.42-.31,1.41,1.41,0,0,0-.61-.12,1.09,1.09,0,0,0-.55.13,1.38,1.38,0,0,0-.4.32,1.31,1.31,0,0,0-.24.47,1.67,1.67,0,0,0-.08.55v2a1.64,1.64,0,0,0,.44.09,3.15,3.15,0,0,0,.44,0,1.51,1.51,0,0,0,.75-.18,1.7,1.7,0,0,0,.54-.46,2,2,0,0,0,.33-.66,2.79,2.79,0,0,0,.11-.76A2.37,2.37,0,0,0,200,29.14Z"/><path class="cls-1" d="M205.66,30.94a2.09,2.09,0,0,1-.39.74,1.78,1.78,0,0,1-.66.49,2.61,2.61,0,0,1-1.88,0,1.94,1.94,0,0,1-.67-.49,2.08,2.08,0,0,1-.4-.75,3.37,3.37,0,0,1-.13-.93,3.63,3.63,0,0,1,.12-1,1.93,1.93,0,0,1,.39-.72,1.57,1.57,0,0,1,.66-.46,3,3,0,0,1,1.93,0,1.48,1.48,0,0,1,.65.46,1.91,1.91,0,0,1,.38.72,3.63,3.63,0,0,1,.12,1A3.38,3.38,0,0,1,205.66,30.94Zm-.55-1.72a1.34,1.34,0,0,0-.26-.52,1.1,1.1,0,0,0-.47-.34,1.81,1.81,0,0,0-.71-.12,1.73,1.73,0,0,0-.71.14,1.21,1.21,0,0,0-.47.36,1.73,1.73,0,0,0-.28.56,3.15,3.15,0,0,0-.08.71,3,3,0,0,0,.08.68,1.51,1.51,0,0,0,.29.58,1.53,1.53,0,0,0,.48.39,1.66,1.66,0,0,0,1.4,0,1.33,1.33,0,0,0,.47-.41,2,2,0,0,0,.25-.61,3.38,3.38,0,0,0,.08-.72A2.87,2.87,0,0,0,205.11,29.22Z"/><path class="cls-1" d="M212.25,28.29c-.05.2-.11.44-.19.72s-.17.58-.26.91-.19.63-.28.93l-.24.8c-.07.24-.11.41-.14.52a.35.35,0,0,1-.09.07.27.27,0,0,1-.1.06h-.25l-.12-.08-1.29-3.4-.6,1.7c-.19.56-.39,1.13-.6,1.7l-.13.08h-.3a.24.24,0,0,1-.09-.06l-.08-.07-1-4.18c0-.1,0-.16.08-.19a.58.58,0,0,1,.21-.05h.15l.07,0,.1.09.8,3.28c.19-.56.39-1.12.59-1.67s.39-1.1.59-1.66l.12-.07h.22l.12.07,1.27,3.4c.17-.56.33-1.11.49-1.67s.31-1.12.47-1.68l.09-.07.1,0h.2a.21.21,0,0,1,.11,0,.13.13,0,0,1,.07.1A2.11,2.11,0,0,1,212.25,28.29Z"/><path class="cls-1" d="M216.74,30l-.08.08-1.53.05c-.5,0-1,0-1.52,0a2.68,2.68,0,0,0,.1.65,2,2,0,0,0,.27.53,1.19,1.19,0,0,0,.45.35,1.62,1.62,0,0,0,.66.13,1.35,1.35,0,0,0,.44-.07,3,3,0,0,0,.42-.14l.33-.14.17-.07a.13.13,0,0,1,.15.13.88.88,0,0,1,0,.21v.14l-.06.11a2.51,2.51,0,0,1-.71.28,3.65,3.65,0,0,1-.77.09,2.4,2.4,0,0,1-1-.18,1.55,1.55,0,0,1-.64-.51,2,2,0,0,1-.35-.79,4.37,4.37,0,0,1-.1-1,2.75,2.75,0,0,1,.13-.88,2.08,2.08,0,0,1,.39-.7,1.67,1.67,0,0,1,.65-.44,2.19,2.19,0,0,1,.88-.16,1.77,1.77,0,0,1,.84.18,1.45,1.45,0,0,1,.53.48,2.06,2.06,0,0,1,.28.7,3.77,3.77,0,0,1,.09.83A.27.27,0,0,1,216.74,30Zm-.65-.94a1.44,1.44,0,0,0-.21-.41,1.05,1.05,0,0,0-.34-.29,1,1,0,0,0-.48-.11,1.38,1.38,0,0,0-1.45,1.35h1.44c.38,0,.76,0,1.14,0A2.4,2.4,0,0,0,216.09,29.05Z"/><path class="cls-1" d="M220.22,28.29l-.09.06H220l-.17,0h-.19a1,1,0,0,0-.42.08,1,1,0,0,0-.36.23.94.94,0,0,0-.25.34,1,1,0,0,0-.09.42v2.73a.46.46,0,0,1-.07.1.33.33,0,0,1-.11.08h-.23a.37.37,0,0,1-.12-.07.34.34,0,0,1-.07-.11V27.94a.31.31,0,0,1,.1-.15l.08,0h.23l.07,0a.27.27,0,0,1,.11.15v.29a1.58,1.58,0,0,1,.58-.38,1.91,1.91,0,0,1,.68-.13H220l.17,0,.07.08a.24.24,0,0,1,.06.09v.28Z"/><path class="cls-1" d="M224.21,30l-.08.08-1.52.05c-.5,0-1,0-1.52,0a2.27,2.27,0,0,0,.1.65,1.56,1.56,0,0,0,.27.53,1.19,1.19,0,0,0,.45.35,1.62,1.62,0,0,0,.66.13,1.39,1.39,0,0,0,.44-.07,4.13,4.13,0,0,0,.42-.14l.33-.14.17-.07a.14.14,0,0,1,.15.13.88.88,0,0,1,0,.21v.14l-.06.11a2.57,2.57,0,0,1-.72.28,3.49,3.49,0,0,1-.76.09,2.45,2.45,0,0,1-1-.18,1.61,1.61,0,0,1-.64-.51,2.1,2.1,0,0,1-.34-.79,4.37,4.37,0,0,1-.1-1,2.75,2.75,0,0,1,.13-.88,1.92,1.92,0,0,1,.39-.7,1.7,1.7,0,0,1,.64-.44,2.28,2.28,0,0,1,.89-.16,1.8,1.8,0,0,1,.84.18,1.45,1.45,0,0,1,.53.48,2.28,2.28,0,0,1,.28.7,3.77,3.77,0,0,1,.09.83A.61.61,0,0,1,224.21,30Zm-.64-.94a1.44,1.44,0,0,0-.21-.41,1.17,1.17,0,0,0-.34-.29,1.06,1.06,0,0,0-.48-.11,1.38,1.38,0,0,0-1.45,1.35h1.44c.38,0,.76,0,1.13,0A1.86,1.86,0,0,0,223.57,29.05Z"/><path class="cls-1" d="M229,32.24l-.1.06h-.21l-.08,0-.05-.06a.22.22,0,0,1,0-.08v-.46a1.93,1.93,0,0,1-.62.51,1.71,1.71,0,0,1-.77.18,2,2,0,0,1-.9-.17,1.52,1.52,0,0,1-.61-.47,2.05,2.05,0,0,1-.35-.71,3.73,3.73,0,0,1-.1-.91,2.5,2.5,0,0,1,.56-1.78,2.29,2.29,0,0,1,1.75-.6l.51,0,.51,0V25.33a.35.35,0,0,1,.08-.1.31.31,0,0,1,.1-.08h.24l.07,0,.06.06a.56.56,0,0,1,.05.08v6.83Zm-1-4-.52,0a1.63,1.63,0,0,0-1.31.48,2,2,0,0,0-.41,1.35,2.76,2.76,0,0,0,.07.65,1.6,1.6,0,0,0,.23.55,1.28,1.28,0,0,0,.42.38,1.46,1.46,0,0,0,.66.14,1.15,1.15,0,0,0,.69-.19,1.22,1.22,0,0,0,.42-.48,2.35,2.35,0,0,0,.21-.68,6.51,6.51,0,0,0,.07-.76c0-.25,0-.5,0-.74s0-.44,0-.61A2.74,2.74,0,0,0,228,28.28Z"/><path class="cls-1" d="M236.24,30.68a2.84,2.84,0,0,1-.46.86,2.13,2.13,0,0,1-.74.59,2.16,2.16,0,0,1-1,.22h-.55a5.28,5.28,0,0,1-.55,0l-.14,0h-.13a.14.14,0,0,1-.11-.06.24.24,0,0,1,0-.12V25.33a.27.27,0,0,1,.06-.1.26.26,0,0,1,.11-.08h.24a.33.33,0,0,1,.11.08.3.3,0,0,1,.07.1v2.91a1.74,1.74,0,0,1,.63-.4,2.26,2.26,0,0,1,.74-.13,1.9,1.9,0,0,1,1.45.5,2,2,0,0,1,.46,1.46A3.38,3.38,0,0,1,236.24,30.68Zm-.75-2.05a1.25,1.25,0,0,0-1-.37,1.54,1.54,0,0,0-.46.08,1.63,1.63,0,0,0-.44.21,1.37,1.37,0,0,0-.34.34.87.87,0,0,0-.13.45v2.44l.46,0H234a1.49,1.49,0,0,0,.77-.19,1.69,1.69,0,0,0,.55-.48,2,2,0,0,0,.33-.69,3,3,0,0,0,.11-.78A1.56,1.56,0,0,0,235.49,28.63Z"/><path class="cls-1" d="M241.21,28.21c-.07.17-.16.38-.28.64s-.25.56-.4.89l-.47,1-.49,1.06-.45,1q-.21.43-.36.78l-.22.48-.11.06h-.3a.2.2,0,0,1-.13,0,.11.11,0,0,1-.06-.11,1.28,1.28,0,0,1,.11-.32l.26-.56.29-.58a2.88,2.88,0,0,0,.17-.38c0-.08-.1-.23-.2-.46l-.34-.81c-.12-.3-.26-.63-.4-1l-.39-.93c-.12-.29-.22-.53-.29-.72a1.56,1.56,0,0,1-.11-.32c0-.07,0-.11.08-.13a.29.29,0,0,1,.16,0h.23l.12.07,1.5,3.57c.28-.59.55-1.18.8-1.78s.52-1.19.77-1.79l.13-.07h.31a.19.19,0,0,1,.12,0,.13.13,0,0,1,.06.11A1.69,1.69,0,0,1,241.21,28.21Z"/></g><g id="white_-_wl_-_Text_als_Pfad" data-name="white - wl - Text als Pfad"><path class="cls-1" d="M58.72,40c-.19.77-.44,1.69-.75,2.78s-.64,2.25-1,3.5l-1.07,3.6c-.35,1.14-.65,2.17-.92,3.1s-.45,1.59-.54,2l-.35.29a1.68,1.68,0,0,1-.38.22h-1l-.47-.3-5-13.17-2.32,6.59c-.76,2.17-1.54,4.37-2.31,6.58l-.51.3H41a1.44,1.44,0,0,1-.37-.22,2,2,0,0,1-.29-.29l-3.9-16.17c-.1-.37,0-.61.29-.73a2,2,0,0,1,.84-.19l.27,0,.27,0,.3.11.4.36,3.06,12.67c.76-2.17,1.52-4.31,2.28-6.44s1.53-4.28,2.29-6.44l.47-.26h.84l.47.26L53.1,51.41q1-3.24,1.88-6.48t1.84-6.48l.33-.27a1,1,0,0,1,.4-.2h.77a.82.82,0,0,1,.44.18.5.5,0,0,1,.25.4A7.57,7.57,0,0,1,58.72,40Z"/><path class="cls-1" d="M76.61,55.15l-.22.24-.29.15h-.81a1.17,1.17,0,0,1-.43-.28,1,1,0,0,1-.3-.42l0-1.82a6.64,6.64,0,0,1-2.5,2,7.4,7.4,0,0,1-3.16.69A7.11,7.11,0,0,1,66,55.21a5.34,5.34,0,0,1-2-1.54,6.28,6.28,0,0,1-1.15-2.33,11.34,11.34,0,0,1-.36-2.92c0-3.31,0-6.61.11-9.89l.4-.44.29-.11h1a.49.49,0,0,1,.4.18.62.62,0,0,1,.15.4c0,1.66,0,3.3-.06,4.93s0,3.27,0,4.93A8.85,8.85,0,0,0,65,50.35a5.09,5.09,0,0,0,.7,1.68,3.38,3.38,0,0,0,1.26,1.17,4,4,0,0,0,2,.44A5.44,5.44,0,0,0,71,53.2,5.63,5.63,0,0,0,72.81,52,6,6,0,0,0,74,50.21a5.44,5.44,0,0,0,.43-2.16c0-.77,0-1.56,0-2.35s0-1.58,0-2.36V38.67a1.13,1.13,0,0,1,.4-.58l.29-.11h.92l.29.11a1.13,1.13,0,0,1,.4.58V54.84A1.15,1.15,0,0,1,76.61,55.15Z"/><path class="cls-1" d="M94.53,55.15a2.61,2.61,0,0,1-.22.24l-.29.15H93.1a1.17,1.17,0,0,1-.43-.28.87.87,0,0,1-.29-.42V44.08A3.68,3.68,0,0,0,91,40.94a5.28,5.28,0,0,0-3.32-1,5.35,5.35,0,0,0-1.64.3,7,7,0,0,0-1.71.8A5.5,5.5,0,0,0,83,42.21a2.39,2.39,0,0,0-.57,1.54V54.84a1,1,0,0,1-.29.42,1.2,1.2,0,0,1-.44.28h-.91l-.29-.15a1.7,1.7,0,0,1-.22-.24,1,1,0,0,1-.19-.31V38.67a1.15,1.15,0,0,1,.41-.58l.29-.11h.76l.3.11.43.44L82.34,40a6,6,0,0,1,2.42-1.69,8.14,8.14,0,0,1,2.94-.53,10.49,10.49,0,0,1,2.83.36,6.1,6.1,0,0,1,2.23,1.13,5.11,5.11,0,0,1,1.44,2,7.12,7.12,0,0,1,.51,2.83V54.84A1.15,1.15,0,0,1,94.53,55.15Z"/><path class="cls-1" d="M108.53,53.25a4.25,4.25,0,0,1-1.41,1.45,6.52,6.52,0,0,1-2,.8,9.62,9.62,0,0,1-2.19.25,14.46,14.46,0,0,1-2.41-.21,12.2,12.2,0,0,1-2.34-.66l-.29-.44V53.16a.66.66,0,0,1,.22-.49.76.76,0,0,1,.51-.2,2,2,0,0,1,.7.18c.29.12.63.26,1,.4s.81.28,1.26.41a5.43,5.43,0,0,0,1.4.18,6.32,6.32,0,0,0,1.28-.13,3.81,3.81,0,0,0,1.21-.44,2.59,2.59,0,0,0,.89-.82,2.16,2.16,0,0,0,.35-1.24,2.12,2.12,0,0,0-.66-1.61,7.05,7.05,0,0,0-1.63-1.11c-.64-.33-1.35-.64-2.11-.95a10.22,10.22,0,0,1-2.12-1.13,6,6,0,0,1-1.62-1.68A4.51,4.51,0,0,1,98,42a3.92,3.92,0,0,1,.46-2,3.83,3.83,0,0,1,1.22-1.31,5.42,5.42,0,0,1,1.75-.75,8.5,8.5,0,0,1,2-.24,16.83,16.83,0,0,1,4.67.66l.22.29a1.74,1.74,0,0,1,.18.33v1a.8.8,0,0,1-.16.46.49.49,0,0,1-.42.24,5.16,5.16,0,0,1-1.1-.13c-.36-.09-.73-.18-1.11-.29s-.76-.22-1.13-.31a4.48,4.48,0,0,0-1.15-.15,6.94,6.94,0,0,0-1.08.09,3,3,0,0,0-1,.35,2.28,2.28,0,0,0-.75.66,1.78,1.78,0,0,0-.29,1.06,2.21,2.21,0,0,0,.66,1.66,6.73,6.73,0,0,0,1.62,1.13c.64.33,1.35.64,2.12,1a10.14,10.14,0,0,1,2.11,1.13,6.07,6.07,0,0,1,1.63,1.68,4.51,4.51,0,0,1,.66,2.53A4.18,4.18,0,0,1,108.53,53.25Z"/><path class="cls-1" d="M126.39,53.89l-.18.4a10.26,10.26,0,0,1-2.87,1.1,13.68,13.68,0,0,1-3,.36,8.79,8.79,0,0,1-3.76-.71,6.38,6.38,0,0,1-2.48-2,8,8,0,0,1-1.37-3,15.7,15.7,0,0,1-.42-3.72,11.81,11.81,0,0,1,.49-3.53,7.39,7.39,0,0,1,1.5-2.73,6.68,6.68,0,0,1,2.5-1.78,9.22,9.22,0,0,1,3.54-.62,18,18,0,0,1,2.72.22,12,12,0,0,1,2.61.73l.29.44v1.21a.72.72,0,0,1-.18.49.64.64,0,0,1-.48.2,3.24,3.24,0,0,1-.93-.18l-1.24-.41c-.45-.14-.91-.27-1.39-.4a5.66,5.66,0,0,0-1.4-.18,6,6,0,0,0-2.58.51,5.11,5.11,0,0,0-1.78,1.39,5.35,5.35,0,0,0-1,2.06,9.59,9.59,0,0,0-.33,2.58,12.14,12.14,0,0,0,.29,2.7,6.48,6.48,0,0,0,1,2.31A5.64,5.64,0,0,0,117.61,53a5.38,5.38,0,0,0,2.69.62,6.32,6.32,0,0,0,1.73-.26c.6-.17,1.16-.35,1.7-.55s1-.37,1.37-.54a2.46,2.46,0,0,1,.74-.26.79.79,0,0,1,.46.51,2.63,2.63,0,0,1,.09.7Z"/><path class="cls-1" d="M144.2,55.15a1.7,1.7,0,0,1-.22.24l-.29.15h-.91a1.2,1.2,0,0,1-.44-.28,1,1,0,0,1-.29-.42V44.08a3.67,3.67,0,0,0-1.35-3.14,5.3,5.3,0,0,0-3.32-1,5.55,5.55,0,0,0-1.75.3,6.63,6.63,0,0,0-1.72.82,4.81,4.81,0,0,0-1.31,1.27,3,3,0,0,0-.51,1.7V54.84a1,1,0,0,1-.3.42,1.17,1.17,0,0,1-.43.28h-.92l-.29-.15-.22-.24a1.15,1.15,0,0,1-.18-.31V28.56a1.33,1.33,0,0,1,.18-.31l.22-.24.29-.14h.92a1.28,1.28,0,0,1,.43.27,1.1,1.1,0,0,1,.3.42V39.84a6.25,6.25,0,0,1,2.42-1.55,8.57,8.57,0,0,1,2.87-.49,10.89,10.89,0,0,1,2.84.34,5.92,5.92,0,0,1,2.21,1.12,5.2,5.2,0,0,1,1.45,2,7.26,7.26,0,0,1,.51,2.87V54.84A1,1,0,0,1,144.2,55.15Z"/><path class="cls-1" d="M157.2,55a4.32,4.32,0,0,1-1.41.58,6.75,6.75,0,0,1-1.51.18,5.13,5.13,0,0,1-3.16-.87,5.34,5.34,0,0,1-1.72-2.25,10.19,10.19,0,0,1-.69-3c-.08-1.1-.13-2.17-.13-3.19V28.56a1.08,1.08,0,0,1,.19-.31L149,28l.29-.14h.91a1.17,1.17,0,0,1,.4.29,1.28,1.28,0,0,1,.29.4c0,3,0,6,0,8.93s0,5.93,0,8.92c0,.61,0,1.33.05,2.15a10.85,10.85,0,0,0,.37,2.38,4.66,4.66,0,0,0,1,1.91,2.51,2.51,0,0,0,2,.79,2.59,2.59,0,0,0,.93-.15,2.91,2.91,0,0,0,.66-.33l.47-.33a.81.81,0,0,1,.46-.14.45.45,0,0,1,.4.22,1.47,1.47,0,0,1,.2.51,3.05,3.05,0,0,1,0,.62v.47Z"/><path class="cls-1" d="M174.63,50.3a7.77,7.77,0,0,1-1.52,2.86,7.06,7.06,0,0,1-2.55,1.9,8.79,8.79,0,0,1-3.62.69,9,9,0,0,1-3.63-.67,7,7,0,0,1-2.59-1.9,8,8,0,0,1-1.55-2.88,12.34,12.34,0,0,1-.51-3.63,13.35,13.35,0,0,1,.47-3.73,7.48,7.48,0,0,1,1.48-2.81,6.54,6.54,0,0,1,2.57-1.79,11.56,11.56,0,0,1,7.47,0,6.33,6.33,0,0,1,2.53,1.79,7.45,7.45,0,0,1,1.46,2.81,13.34,13.34,0,0,1,.48,3.73A13.06,13.06,0,0,1,174.63,50.3Zm-2.14-6.68a5,5,0,0,0-1-2,4.43,4.43,0,0,0-1.8-1.29,7.17,7.17,0,0,0-2.76-.46,6.59,6.59,0,0,0-2.73.51,4.81,4.81,0,0,0-1.85,1.43A6.11,6.11,0,0,0,161.3,44a10.81,10.81,0,0,0,0,5.38,6.21,6.21,0,0,0,1.1,2.23,5.48,5.48,0,0,0,1.86,1.51,5.73,5.73,0,0,0,2.65.57,5.85,5.85,0,0,0,2.77-.6,5,5,0,0,0,1.81-1.61,6.85,6.85,0,0,0,1-2.34,12,12,0,0,0,.31-2.79A11,11,0,0,0,172.49,43.62Zm-7.7-8.23-.29.14h-1.68l-.44-.36-.18-.37V33.23a1.3,1.3,0,0,1,.43-.58l.3-.11h1.53l.29.11a1.08,1.08,0,0,1,.4.58V35ZM171,35.3a1.07,1.07,0,0,1-.37.23h-1.68l-.44-.36-.14-.37V33.27a1.09,1.09,0,0,1,.4-.58l.29-.11h1.54l.25.11a1.2,1.2,0,0,1,.44.58V35A2.61,2.61,0,0,1,171,35.3Z"/><path class="cls-1" d="M189,53.25a4.16,4.16,0,0,1-1.41,1.45,6.52,6.52,0,0,1-2,.8,9.62,9.62,0,0,1-2.19.25,14.55,14.55,0,0,1-2.41-.21,12.3,12.3,0,0,1-2.33-.66l-.29-.44V53.16a.63.63,0,0,1,.22-.49.73.73,0,0,1,.51-.2,2,2,0,0,1,.69.18c.29.12.63.26,1,.4s.81.28,1.26.41a5.45,5.45,0,0,0,1.41.18,6.22,6.22,0,0,0,1.27-.13,3.81,3.81,0,0,0,1.21-.44,2.59,2.59,0,0,0,.89-.82A2.16,2.16,0,0,0,187.2,51a2.12,2.12,0,0,0-.66-1.61,7,7,0,0,0-1.62-1.11c-.65-.33-1.35-.64-2.12-.95a10.14,10.14,0,0,1-2.11-1.13,6.07,6.07,0,0,1-1.63-1.68A4.51,4.51,0,0,1,178.4,42a3.92,3.92,0,0,1,.46-2,3.83,3.83,0,0,1,1.22-1.31,5.52,5.52,0,0,1,1.75-.75,8.5,8.5,0,0,1,2-.24,16.83,16.83,0,0,1,4.67.66l.22.29a1.35,1.35,0,0,1,.19.33v1a.82.82,0,0,1-.17.46.49.49,0,0,1-.42.24,5.07,5.07,0,0,1-1.09-.13c-.37-.09-.74-.18-1.12-.29s-.75-.22-1.13-.31a4.48,4.48,0,0,0-1.15-.15,6.72,6.72,0,0,0-1.07.09,3.14,3.14,0,0,0-1,.35,2.38,2.38,0,0,0-.75.66A1.78,1.78,0,0,0,180.7,42a2.21,2.21,0,0,0,.66,1.66A6.93,6.93,0,0,0,183,44.79c.65.33,1.35.64,2.12,1a10.22,10.22,0,0,1,2.12,1.13,6.18,6.18,0,0,1,1.62,1.68,4.51,4.51,0,0,1,.66,2.53A4.18,4.18,0,0,1,189,53.25Z"/><path class="cls-1" d="M206.87,55.15a1.7,1.7,0,0,1-.22.24l-.29.15h-.8a1.2,1.2,0,0,1-.44-.28.94.94,0,0,1-.29-.42l0-1.82a6.56,6.56,0,0,1-2.5,2,7.37,7.37,0,0,1-3.16.69,7.15,7.15,0,0,1-2.92-.54,5.31,5.31,0,0,1-2-1.54,6.14,6.14,0,0,1-1.15-2.33,10.91,10.91,0,0,1-.37-2.92q0-5,.11-9.89l.4-.44.29-.11h1a.49.49,0,0,1,.4.18.61.61,0,0,1,.14.4c0,1.66,0,3.3-.05,4.93s0,3.27,0,4.93a8.28,8.28,0,0,0,.22,1.93,5.3,5.3,0,0,0,.69,1.68,3.54,3.54,0,0,0,1.26,1.17,4,4,0,0,0,1.95.44,5.45,5.45,0,0,0,2.16-.44,5.63,5.63,0,0,0,1.79-1.2,5.75,5.75,0,0,0,1.2-1.79,5.45,5.45,0,0,0,.44-2.16c0-.77,0-1.56,0-2.35s0-1.58,0-2.36V38.67a1.08,1.08,0,0,1,.4-.58l.29-.11h.91l.29.11a1.15,1.15,0,0,1,.41.58V54.84A1,1,0,0,1,206.87,55.15Z"/><path class="cls-1" d="M224.79,55.15a1.7,1.7,0,0,1-.22.24l-.29.15h-.91a1.2,1.2,0,0,1-.44-.28,1,1,0,0,1-.29-.42V44.08a3.67,3.67,0,0,0-1.35-3.14,5.41,5.41,0,0,0-5-.73,7.28,7.28,0,0,0-1.72.8,5.68,5.68,0,0,0-1.37,1.2,2.44,2.44,0,0,0-.56,1.54V54.84a1,1,0,0,1-.3.42,1.17,1.17,0,0,1-.43.28H211l-.29-.15-.22-.24a1.15,1.15,0,0,1-.18-.31V38.67a1.13,1.13,0,0,1,.4-.58L211,38h.77l.29.11.44.44L212.6,40A6,6,0,0,1,215,38.33,8.14,8.14,0,0,1,218,37.8a10.59,10.59,0,0,1,2.83.36A6.13,6.13,0,0,1,223,39.29a5,5,0,0,1,1.44,2,6.94,6.94,0,0,1,.52,2.83V54.84A1,1,0,0,1,224.79,55.15Z"/><path class="cls-1" d="M241.22,58.05a8.54,8.54,0,0,1-1.34,2.8,6.69,6.69,0,0,1-2.24,1.95,6.55,6.55,0,0,1-3.18.73c-.26,0-.67,0-1.22-.07a11.07,11.07,0,0,1-1.66-.28,7.64,7.64,0,0,1-1.51-.51,1.28,1.28,0,0,1-.79-.78V60.5a.57.57,0,0,1,.28-.51,1,1,0,0,1,.56-.18.3.3,0,0,0,.15.09.24.24,0,0,1,.14.09,6.11,6.11,0,0,0,1.9,1.06,6.78,6.78,0,0,0,2.15.33,4.1,4.1,0,0,0,2.18-.57,5,5,0,0,0,1.53-1.44,6.31,6.31,0,0,0,.89-2,8.46,8.46,0,0,0,.3-2.21V51.7a7.5,7.5,0,0,1-2.19,1.85,5.69,5.69,0,0,1-2.78.71,6.47,6.47,0,0,1-2.94-.6A5,5,0,0,1,229.56,52a6.87,6.87,0,0,1-1-2.42,13.83,13.83,0,0,1-.31-2.92,9.71,9.71,0,0,1,.64-3.53,8.83,8.83,0,0,1,1.77-2.81,8.13,8.13,0,0,1,2.72-1.86,8.92,8.92,0,0,1,3.53-.67c.7,0,1.4,0,2.09.09a16.89,16.89,0,0,1,2.1.31,1.7,1.7,0,0,1,.33.33,1.58,1.58,0,0,1,.26.4V54.84A11.9,11.9,0,0,1,241.22,58.05Zm-4.34-18.14a6.42,6.42,0,0,0-2.62.53,6,6,0,0,0-2,1.44A6.48,6.48,0,0,0,231,44a7.66,7.66,0,0,0-.46,2.63,11.3,11.3,0,0,0,.17,1.91,5.61,5.61,0,0,0,.6,1.77,3.55,3.55,0,0,0,1.19,1.3,3.36,3.36,0,0,0,1.91.49,4.18,4.18,0,0,0,2.37-.62,4.31,4.31,0,0,0,1.5-1.64,8.12,8.12,0,0,0,.8-2.3,18.62,18.62,0,0,0,.33-2.61c.05-.89.06-1.75,0-2.57s0-1.56,0-2.19A11.64,11.64,0,0,0,236.88,39.91Z"/></g><g id="white_-_Bildmarke" data-name="white - Bildmarke"><path id="path3588-1-3-5-9-4-6-2-6-8" class="cls-1" d="M26,24.82c2.61,15.39,8,19.29,8.5,30.57h-2c-.43-11.29-6.85-19.89-7.68-30.57Z"/><path id="path5414-82-7-8-5-8-7-72-6-3-1-4-2-0-0-4-0-6-8" class="cls-1" d="M32.52,24.38a7,7,0,0,1-13.8,2.69,7,7,0,0,1,13.8-2.69Z"/><path id="path4376-2-1-6-2-9-7-9-8-0-6" class="cls-1" d="M23.94,19.34,22.66,12,23,12l1.59,7.26Z"/><path id="path4416-78-6-7-9-3-2-3-7-4-4" class="cls-1" d="M26.73,8.15c.35,1.63-1.41,3.34-3.92,3.84s-4.82-.4-5.17-2h0"/><path id="path4416-78-6-7-9-3-2-3-7-4-4-2" data-name="path4416-78-6-7-9-3-2-3-7-4-4" class="cls-1" d="M13.18,13c1.42.86,1.46,3.32.1,5.48s-3.6,3.24-5,2.38h0"/><path id="path4416-78-6-7-9-3-2-3-7-4-4-3" data-name="path4416-78-6-7-9-3-2-3-7-4-4" class="cls-1" d="M7.7,24.77c1.63-.35,3.34,1.41,3.84,3.92s-.4,4.83-2,5.17h0"/><path id="path4416-78-6-7-9-3-2-3-7-4-4-4" data-name="path4416-78-6-7-9-3-2-3-7-4-4" class="cls-1" d="M11.89,36.89c1-1.31,3.46-1.06,5.46.54s2.8,4,1.78,5.26h0"/><path id="path4416-78-6-7-9-3-2-3-7-4-4-5" data-name="path4416-78-6-7-9-3-2-3-7-4-4" class="cls-1" d="M40.25,15c-1,1.35-3.42,1.18-5.47-.36s-2.92-3.86-1.94-5.2h0"/><path id="path4376-2-1-6-2-9-7-9-8-0-6-2" data-name="path4376-2-1-6-2-9-7-9-8-0-6" class="cls-1" d="M29.9,20.29l4.71-5.76.27.22L30.43,20.7Z"/><path id="path4376-2-1-6-2-9-7-9-8-0-6-3" data-name="path4376-2-1-6-2-9-7-9-8-0-6" class="cls-1" d="M19.57,22.4l-6.22-4.08.19-.3,6.38,3.82Z"/><path id="path4376-2-1-6-2-9-7-9-8-0-6-4" data-name="path4376-2-1-6-2-9-7-9-8-0-6" class="cls-1" d="M18.83,27.39l-7.28,1.5-.08-.35,7.21-1.8Z"/><path id="path4376-2-1-6-2-9-7-9-8-0-6-5" data-name="path4376-2-1-6-2-9-7-9-8-0-6" class="cls-1" d="M22.19,31.75l-4.7,5.77-.27-.23,4.45-5.95Z"/><path id="path4416-78-6-7-9-3-2-3-7-4-4-6" data-name="path4416-78-6-7-9-3-2-3-7-4-4" class="cls-1" d="M54.26,16.15c-1.46,1.07-3.94.08-5.56-2.19S47,9,48.41,7.91h0"/><path id="path4376-2-1-6-2-9-7-9-8-0-6-6" data-name="path4376-2-1-6-2-9-7-9-8-0-6" class="cls-1" d="M41.76,18.2l6.8-4.42.21.33-6.6,4.69Z"/><path id="path4416-78-6-7-9-3-2-3-7-4-4-7" data-name="path4416-78-6-7-9-3-2-3-7-4-4" class="cls-1" d="M48,31.34c-1.63.79-3.9-.62-5.09-3.14s-.85-5.21.78-6h0"/><path id="path4376-2-1-6-2-9-7-9-8-0-6-7" data-name="path4376-2-1-6-2-9-7-9-8-0-6" class="cls-1" d="M35.32,31.15,42.79,28l.15.36-7.32,3.46Z"/></g></svg>